<?xml version="1.0" encoding="UTF-8"?>
<!DOCTYPE svg PUBLIC "-//W3C//DTD SVG 1.1//EN" "http://www.w3.org/Graphics/SVG/1.1/DTD/svg11.dtd">
<!-- Creator: CorelDRAW 2021.5 -->
<svg xmlns="http://www.w3.org/2000/svg" xml:space="preserve" width="20mm" height="20mm" version="1.1" style="shape-rendering:geometricPrecision; text-rendering:geometricPrecision; image-rendering:optimizeQuality; fill-rule:evenodd; clip-rule:evenodd"
viewBox="0 0 2000 2000"
 xmlns:xlink="http://www.w3.org/1999/xlink"
 xmlns:xodm="http://www.corel.com/coreldraw/odm/2003">
 <defs>
  <style type="text/css">
   <![CDATA[
    .str0 {stroke:#FEFEFE;stroke-width:70.56;stroke-miterlimit:22.9256}
    .fil1 {fill:none}
    .fil0 {fill:#FEFEFE}
   ]]>
  </style>
 </defs>
 <g id="Слой_x0020_1">
  <metadata id="CorelCorpID_0Corel-Layer"/>
  <path class="fil0 str0" d="M972.9 515.92c-855,768.64 301.59,1131.82 332.7,510.7 13.11,-261.92 -189.65,-391.27 -332.7,-510.7z"/>
  <line class="fil1 str0" x1="972.9" y1="515.92" x2="966.35" y2= "1341.04" />
  <polyline class="fil1 str0" points="785.04,718.02 970.29,845.93 1190.39,709.12 "/>
  <polyline class="fil1 str0" points="675.16,927.3 968,1132.99 1298.18,918.93 "/>
  <path class="fil1 str0" d="M1161.31 1685.85c-853.82,133.31 -1287.06,-810.34 -544.28,-1366.35"/>
  <polyline class="fil1 str0" points="334.55,285.69 617.03,319.5 575.55,590.12 "/>
  <path class="fil1 str0" d="M830.93 237.25c857.07,-110.53 1265.03,844.32 507.71,1380.35"/>
  <polyline class="fil1 str0" points="1620.12,1658.92 1338.64,1617.6 1387.31,1348.18 "/>
 </g>
</svg>
