<?xml version="1.0" standalone="no"?>
<!DOCTYPE svg PUBLIC "-//W3C//DTD SVG 20010904//EN"
 "http://www.w3.org/TR/2001/REC-SVG-20010904/DTD/svg10.dtd">
<svg version="1.0" xmlns="http://www.w3.org/2000/svg"
 width="4852.000000pt" height="1705.000000pt" viewBox="0 0 4852.000000 1705.000000"
 preserveAspectRatio="xMidYMid meet">

<g transform="translate(0.000000,1705.000000) scale(0.100000,-0.100000)"
fill="#000000" stroke="none">
<path d="M0 10240 l0 -6810 3403 2 3402 3 0 6805 0 6805 -3402 3 -3403 2 0
-6810z m4540 0 l0 -4540 -1135 0 -1135 0 0 4540 0 4540 1135 0 1135 0 0 -4540z"/>
<path d="M47205 15530 c-380 -80 -681 -341 -810 -703 -132 -369 -56 -779 202
-1082 160 -189 415 -329 662 -366 118 -17 324 -7 431 21 207 55 349 138 505
294 161 163 251 326 297 541 25 118 27 308 4 429 -84 443 -438 792 -884 871
-111 20 -298 18 -407 -5z m393 -216 c84 -17 202 -64 290 -116 84 -49 228 -198
284 -293 181 -307 158 -695 -58 -976 -127 -165 -316 -283 -523 -324 -101 -21
-294 -16 -385 9 -312 87 -545 318 -628 625 -31 115 -31 326 0 441 88 321 343
564 667 633 93 20 257 21 353 1z"/>
<path d="M47030 14460 l0 -550 115 0 115 0 0 230 0 230 53 0 c69 0 120 -15
157 -46 16 -14 89 -113 160 -220 l131 -194 129 0 c72 0 130 2 130 5 0 3 -44
76 -97 161 -103 164 -179 258 -240 295 l-36 22 52 13 c75 20 122 47 168 97
123 133 81 385 -77 467 -64 33 -146 40 -457 40 l-303 0 0 -550z m617 345 c86
-51 82 -194 -7 -240 -22 -12 -75 -17 -205 -22 l-175 -6 0 147 0 148 178 -4
c154 -3 181 -5 209 -23z"/>
<path d="M31770 10505 l0 -3545 470 0 470 0 2 2647 3 2647 1820 -2644 1821
-2645 379 0 380 0 3 3543 2 3542 -470 0 -470 0 0 -2642 c-1 -2579 -1 -2642
-19 -2621 -11 13 -832 1202 -1826 2643 l-1807 2620 -379 0 -379 0 0 -3545z"/>
<path d="M12420 10500 l0 -3540 470 0 470 0 0 1065 0 1065 1038 0 c862 0 1059
3 1166 15 549 64 1035 304 1441 710 426 426 664 930 716 1515 14 165 7 473
-16 620 -83 547 -315 985 -736 1395 -378 367 -792 577 -1317 667 -126 22 -137
22 -1679 25 l-1553 4 0 -3541z m3157 2567 c156 -34 241 -65 384 -138 141 -73
263 -164 382 -283 314 -318 460 -692 444 -1136 -16 -420 -176 -768 -491 -1068
-211 -201 -430 -316 -728 -385 -91 -21 -114 -21 -1150 -24 l-1058 -4 0 1536 0
1536 1048 -4 1047 -3 122 -27z"/>
<path d="M21813 13983 c-28 -64 -3008 -6938 -3030 -6990 l-13 -33 513 0 513 0
410 943 410 942 1740 2 1739 3 374 -873 c206 -479 389 -905 407 -944 l33 -73
512 0 c454 0 510 2 505 15 -3 9 -693 1602 -1533 3540 l-1527 3525 -514 0 -513
0 -26 -57z m676 -1436 c60 -139 339 -785 621 -1437 282 -652 525 -1214 540
-1250 l28 -65 -1315 -3 c-724 -1 -1319 0 -1321 3 -3 3 62 161 145 353 1222
2830 1166 2704 1181 2677 7 -14 62 -139 121 -278z"/>
<path d="M39450 13570 l0 -470 1060 0 1060 0 0 -3070 0 -3070 470 0 470 0 0
3070 0 3070 1065 0 1065 0 0 470 0 470 -2595 0 -2595 0 0 -470z"/>
<path d="M27780 10490 l0 -3540 470 0 470 0 0 3540 0 3540 -470 0 -470 0 0
-3540z"/>
<path d="M3407 2293 c-4 -3 -7 -514 -7 -1135 l0 -1128 3500 0 3500 0 0 1135 0
1135 -3493 0 c-1922 0 -3497 -3 -3500 -7z"/>
<path d="M23272 2289 c-365 -47 -659 -245 -809 -544 -89 -176 -127 -358 -127
-600 1 -378 98 -642 315 -851 85 -81 136 -118 234 -166 345 -172 802 -171
1224 5 l126 52 3 268 2 267 -25 0 c-15 0 -48 -19 -83 -47 -140 -114 -282 -191
-414 -225 -164 -41 -378 -10 -511 76 -208 133 -312 409 -278 739 21 200 83
339 204 453 117 111 238 156 422 155 183 0 360 -75 564 -239 44 -35 73 -52 93
-52 l28 0 0 270 0 270 -67 31 c-172 78 -315 119 -495 138 -110 12 -312 12
-406 0z"/>
<path d="M25822 2289 c-207 -15 -403 -75 -548 -170 -212 -139 -315 -331 -301
-563 6 -107 41 -224 87 -296 48 -74 146 -161 238 -208 148 -77 252 -109 578
-176 93 -19 193 -43 221 -54 111 -42 169 -116 160 -205 -10 -113 -115 -177
-325 -198 -270 -27 -590 62 -842 235 -41 28 -82 50 -90 50 -8 -1 -21 -2 -27
-3 -10 -1 -13 -61 -13 -265 l0 -264 139 -46 c260 -86 439 -116 703 -116 269 0
447 34 621 118 118 57 147 78 239 169 121 119 178 262 178 448 0 172 -39 283
-134 383 -130 138 -307 213 -706 298 -399 85 -450 117 -442 276 2 37 64 103
121 132 80 40 146 51 306 50 127 0 166 -4 255 -26 155 -39 316 -113 426 -195
17 -13 45 -23 63 -23 l31 0 -2 252 -3 253 -60 24 c-217 86 -601 139 -873 120z"/>
<path d="M29915 2289 c-462 -63 -785 -349 -894 -791 -61 -247 -51 -559 24
-797 153 -480 610 -742 1212 -694 172 14 330 54 502 127 l126 53 3 267 2 266
-24 0 c-15 0 -65 -31 -129 -79 -128 -96 -284 -176 -387 -197 -148 -31 -352 -4
-470 63 -214 123 -325 378 -306 703 9 148 29 231 82 339 149 302 497 407 841
255 64 -28 206 -119 281 -180 36 -30 63 -44 83 -44 l29 0 0 269 0 268 -87 41
c-111 50 -253 96 -368 117 -107 20 -419 28 -520 14z"/>
<path d="M32525 2289 c-510 -70 -846 -413 -916 -936 -15 -113 -6 -413 16 -508
94 -419 359 -701 752 -801 258 -65 588 -52 825 32 287 102 508 333 608 636 42
126 51 191 57 390 4 158 2 216 -12 300 -32 195 -98 354 -206 498 -139 184
-337 308 -586 366 -89 21 -140 26 -288 29 -99 2 -211 0 -250 -6z m378 -429
c166 -51 289 -199 349 -415 20 -71 22 -104 22 -295 0 -191 -2 -224 -22 -294
-79 -283 -260 -436 -517 -436 -259 0 -438 154 -517 445 -30 111 -33 428 -5
550 24 103 92 247 147 308 131 147 339 200 543 137z"/>
<path d="M37850 2283 c-220 -33 -418 -126 -565 -265 -164 -155 -263 -342 -311
-588 -25 -131 -26 -428 -1 -554 49 -242 135 -414 287 -567 150 -152 331 -243
565 -286 123 -23 407 -23 530 0 450 82 750 376 846 827 30 142 33 436 5 580
-44 226 -131 403 -270 548 -159 166 -366 269 -618 306 -129 20 -340 19 -468
-1z m325 -403 c195 -28 345 -168 415 -387 82 -255 56 -628 -57 -820 -94 -162
-254 -253 -443 -253 -321 0 -524 246 -547 660 -17 330 79 600 258 719 113 75
232 101 374 81z"/>
<path d="M12630 1155 l0 -1105 558 0 c345 0 591 4 647 11 200 25 367 96 489
210 122 114 182 243 192 414 11 165 -36 303 -136 405 -66 67 -137 109 -245
145 -44 15 -81 28 -83 30 -1 1 27 19 63 40 168 99 255 248 255 440 0 244 -141
405 -415 475 -112 29 -281 37 -842 39 l-483 2 0 -1106z m1035 672 c82 -37 125
-104 124 -197 0 -90 -26 -150 -81 -187 -64 -42 -110 -50 -325 -59 l-183 -7 0
237 0 238 213 -4 c176 -3 219 -7 252 -21z m55 -837 c154 -34 224 -132 206
-288 -14 -122 -63 -180 -191 -227 -42 -15 -89 -19 -292 -23 l-243 -4 0 282 0
283 233 -6 c127 -3 257 -11 287 -17z"/>
<path d="M15104 2244 c3 -9 188 -320 411 -691 l405 -675 0 -414 0 -414 285 0
285 0 0 424 0 424 401 669 c221 367 404 674 406 681 4 9 -61 12 -304 12 l-310
0 -229 -425 c-126 -233 -232 -425 -235 -425 -4 0 -114 191 -244 425 l-238 425
-319 0 c-289 0 -320 -2 -314 -16z"/>
<path d="M19477 2253 c-4 -3 -7 -501 -7 -1105 l0 -1098 260 0 260 0 2 758 3
757 466 -755 466 -755 276 -3 277 -2 0 1105 0 1105 -260 0 -260 0 -2 -632 -3
-632 -401 630 -401 629 -335 3 c-184 1 -337 -1 -341 -5z"/>
<path d="M34730 1155 l0 -1105 795 0 795 0 0 210 0 210 -510 0 -510 0 -2 893
-3 892 -282 3 -283 2 0 -1105z"/>
<path d="M40050 1527 c0 -437 4 -767 10 -817 51 -417 324 -653 811 -701 264
-25 561 16 734 104 200 100 340 285 385 507 19 89 20 141 20 868 l0 772 -282
-2 -283 -3 -5 -775 c-5 -731 -6 -778 -24 -825 -23 -60 -55 -112 -87 -142 -104
-95 -350 -120 -508 -52 -59 25 -125 92 -153 156 -44 101 -47 156 -48 921 l0
722 -285 0 -285 0 0 -733z"/>
<path d="M42970 1156 l0 -1106 285 0 285 0 0 405 0 405 128 0 128 0 299 -405
300 -404 349 -1 348 0 -34 43 c-79 97 -698 896 -698 901 0 2 33 22 73 44 163
91 279 224 327 377 31 98 39 285 16 387 -40 179 -192 332 -401 403 -124 42
-187 46 -807 52 l-598 5 0 -1106z m1058 670 c120 -38 178 -133 170 -275 -5
-88 -26 -139 -78 -191 -78 -78 -168 -99 -422 -100 l-158 0 0 296 0 296 218 -5
c165 -3 230 -9 270 -21z"/>
</g>
</svg>
