<?xml version="1.0" standalone="no"?>
<!DOCTYPE svg PUBLIC "-//W3C//DTD SVG 20010904//EN"
 "http://www.w3.org/TR/2001/REC-SVG-20010904/DTD/svg10.dtd">
<svg version="1.0" xmlns="http://www.w3.org/2000/svg"
 width="853.000000pt" height="682.000000pt" viewBox="0 0 853.000000 682.000000"
 preserveAspectRatio="xMidYMid meet">

<g transform="translate(0.000000,682.000000) scale(0.100000,-0.100000)"
fill="#000000" stroke="none">
<path d="M0 6794 c0 -28 8 -28 85 7 l40 18 -62 0 c-61 1 -63 0 -63 -25z"/>
<path d="M6263 4532 c9 -43 62 -120 93 -134 13 -6 24 -15 24 -20 0 -4 5 -8 10
-8 6 0 -5 21 -25 46 -19 26 -35 50 -35 54 0 5 -16 28 -37 52 l-36 43 6 -33z"/>
<path d="M6404 4345 c5 -11 11 -32 14 -47 4 -25 1 -28 -21 -28 -15 0 -49 9
-77 20 -31 12 -74 20 -111 20 -44 0 -61 4 -65 15 -8 19 -21 19 -40 1 -25 -26
-12 -44 29 -37 4 0 7 -3 7 -9 0 -10 88 -39 200 -65 162 -37 225 -76 236 -146
4 -23 17 -53 29 -67 47 -57 57 -99 30 -126 -37 -37 -248 -67 -326 -46 -20 6
-72 30 -115 54 -60 33 -80 49 -82 67 -5 30 -35 64 -73 79 -15 7 -31 20 -34 30
-3 10 -19 23 -35 30 -17 7 -30 18 -30 25 0 13 -67 75 -81 75 -3 0 -2 -20 4
-45 6 -26 16 -45 24 -45 8 0 14 -13 15 -32 2 -45 1 -51 -7 -70 -5 -13 -2 -18
9 -18 20 0 11 -59 -13 -78 -12 -10 -15 -26 -13 -63 4 -55 -16 -99 -46 -99 -20
0 -37 -24 -46 -67 -6 -27 -13 -33 -56 -43 -33 -8 -50 -18 -53 -31 -3 -10 -18
-24 -34 -30 -15 -6 -40 -17 -55 -25 -42 -22 -75 -17 -136 24 -44 29 -241 112
-268 112 -19 0 9 -24 75 -64 96 -58 152 -113 207 -203 23 -37 46 -68 51 -68
26 0 372 330 399 380 22 42 67 64 90 44 19 -16 17 -37 -20 -213 -15 -71 -26
-149 -24 -174 l3 -46 43 85 c60 116 144 219 179 219 9 0 33 5 55 12 31 9 44 9
59 0 10 -7 30 -12 44 -12 14 0 41 -7 61 -15 43 -18 51 -15 149 55 44 32 98 67
120 79 87 47 275 184 275 201 0 9 -160 127 -251 185 -62 40 -203 137 -209 144
-3 4 -25 22 -50 41 -33 27 -42 30 -36 15z"/>
<path d="M8495 4037 c-6 -7 -23 -41 -39 -76 -67 -150 -121 -224 -232 -315
-129 -106 -141 -116 -150 -116 -5 0 -21 -7 -36 -14 -26 -14 -41 -5 -18 9 16
10 12 55 -5 55 -8 0 -15 -6 -15 -13 0 -8 -18 -33 -41 -58 -29 -31 -42 -40 -48
-31 -6 10 -11 9 -21 -3 -8 -9 -27 -23 -44 -32 -27 -14 -31 -14 -43 3 -7 10
-13 13 -13 7 0 -9 -55 -27 -63 -20 -1 1 -12 -5 -24 -14 -27 -18 -83 -13 -83 7
0 17 -13 18 -43 2 -12 -6 -29 -14 -37 -18 -8 -4 -17 -18 -18 -31 -5 -34 -18
-47 -81 -78 -54 -26 -88 -31 -75 -9 4 7 -5 8 -27 3 -43 -9 -43 -9 -29 -34 9
-17 8 -21 -5 -21 -8 0 -15 5 -15 12 0 6 -7 4 -18 -5 -10 -10 -24 -17 -30 -17
-6 0 -19 -14 -27 -31 -9 -17 -32 -38 -53 -47 -36 -16 -44 -19 -69 -21 -7 0
-13 -8 -13 -16 0 -8 -7 -15 -15 -15 -8 0 -15 -8 -15 -19 0 -10 -10 -31 -22
-46 -17 -22 -19 -31 -10 -45 8 -13 7 -42 -4 -111 -28 -182 -28 -183 -15 -175
6 4 18 0 27 -8 8 -9 22 -16 30 -16 8 0 14 -6 14 -13 0 -12 41 -39 61 -41 13
-2 75 -52 112 -91 80 -85 97 -106 97 -124 0 -28 39 -65 115 -106 97 -53 132
-69 195 -91 120 -40 158 -81 180 -187 7 -34 14 -63 15 -64 7 -10 347 65 361
80 4 4 -45 7 -109 7 -139 0 -167 7 -108 27 28 9 47 11 59 4 11 -6 24 -6 33 0
7 5 31 14 52 19 20 6 37 15 37 21 0 11 -41 72 -52 77 -3 2 -19 14 -35 28 -23
20 -62 30 -95 25 -5 0 -8 3 -8 9 0 5 19 14 43 21 23 6 49 17 57 23 8 7 24 16
34 20 17 6 12 11 -30 31 -27 13 -57 25 -67 25 -11 0 -21 8 -24 19 -6 23 -62
34 -113 23 -44 -10 -130 -3 -130 10 0 5 -12 8 -27 6 -30 -3 -44 19 -14 24 18
3 19 5 6 43 -16 46 -7 58 34 42 21 -8 44 -6 94 6 36 10 75 17 87 17 11 0 55
17 98 39 42 21 109 46 147 55 97 24 327 97 343 109 9 7 12 94 12 371 l0 361
-67 -1 c-72 -2 -120 -11 -139 -26 -7 -5 -23 -4 -40 2 -20 8 -30 8 -32 1 -5
-14 -39 -14 -47 -1 -3 5 -1 18 5 29 9 17 17 19 58 15 38 -5 51 -2 67 13 12 11
33 23 48 26 14 4 31 16 37 27 6 11 30 31 55 45 40 24 65 58 51 72 -3 3 -29
-12 -58 -34 -60 -46 -172 -105 -240 -127 -15 -5 -16 -3 -5 14 6 11 17 20 24
20 7 0 13 6 13 13 0 7 16 31 36 53 51 54 136 172 156 214 23 51 61 168 56 179
-1 5 -8 4 -13 -2z m-984 -1525 c37 -33 34 -67 -8 -83 -32 -12 -38 -7 -22 19 7
11 9 27 6 36 -9 23 -49 17 -62 -10 -9 -17 -13 -19 -23 -8 -17 18 -15 24 10 51
29 31 61 29 99 -5z m134 -62 c10 -30 -16 -73 -49 -81 -35 -10 -62 6 -46 26 6
7 8 20 4 29 -4 10 0 18 12 22 11 3 26 9 34 14 24 14 38 11 45 -10z m62 -47 c4
-10 13 -24 20 -32 11 -10 11 -16 2 -27 -9 -12 -17 -9 -43 14 -26 22 -30 30
-22 45 6 9 17 17 24 17 7 0 16 -8 19 -17z"/>
<path d="M8142 3840 c-13 -46 -35 -102 -48 -126 -29 -52 -29 -54 -4 -54 15 0
20 7 20 28 0 15 9 41 19 58 21 35 45 130 40 158 -2 10 -15 -19 -27 -64z"/>
<path d="M2 3858 l3 -33 160 -28 c88 -16 210 -32 270 -37 61 -4 144 -13 187
-20 42 -7 84 -10 94 -6 51 20 -74 50 -461 111 -121 20 -228 38 -238 41 -16 5
-18 1 -15 -28z"/>
<path d="M2156 3781 c14 -14 74 -24 74 -13 0 13 -25 22 -58 22 -16 0 -22 -4
-16 -9z"/>
<path d="M830 3725 c-10 -12 -9 -16 6 -21 11 -3 27 -10 36 -15 10 -5 31 -9 47
-9 17 0 32 -4 35 -9 3 -5 22 -12 42 -15 20 -4 62 -20 94 -37 31 -16 63 -29 70
-29 6 0 44 -11 83 -25 102 -34 330 -95 360 -95 22 0 24 4 24 40 0 35 -4 43
-30 56 -71 37 -168 66 -252 76 -49 5 -121 18 -160 28 -38 10 -108 24 -155 30
-47 6 -96 15 -110 20 -55 18 -78 20 -90 5z"/>
<path d="M8065 3600 c3 -5 11 -10 16 -10 6 0 7 5 4 10 -3 6 -11 10 -16 10 -6
0 -7 -4 -4 -10z"/>
<path d="M85 3490 c17 -18 71 -47 139 -75 114 -47 130 -55 180 -82 27 -14 33
-14 79 2 38 14 67 16 125 12 74 -5 98 -10 227 -43 135 -34 210 -45 279 -38
l69 6 -29 19 c-32 20 -281 116 -449 174 -127 43 -137 44 -429 51 l-220 4 29
-30z"/>
<path d="M83 3008 c-4 -7 -17 -18 -28 -24 -11 -6 -20 -17 -20 -24 0 -7 86 -56
190 -109 266 -135 370 -182 402 -180 30 2 103 -26 103 -39 0 -10 71 -45 77
-38 3 3 14 -4 26 -15 29 -27 33 -24 32 19 0 32 -3 37 -22 35 -13 -2 -23 2 -23
7 0 6 9 10 20 10 13 0 18 5 13 16 -3 8 -12 13 -19 10 -8 -3 -20 -9 -28 -12 -8
-3 -16 3 -19 15 -3 13 -11 19 -19 16 -8 -3 -23 3 -33 15 -10 11 -25 20 -34 21
-12 0 -11 2 4 8 17 7 14 10 -20 21 -34 11 -37 14 -20 21 14 5 3 8 -33 8 -33 1
-51 5 -47 11 3 6 -1 10 -9 10 -8 0 -20 9 -26 20 -6 11 -16 17 -25 14 -8 -4
-15 -1 -15 5 0 7 -9 9 -23 6 -18 -5 -28 0 -41 19 -9 14 -23 26 -31 26 -9 0
-23 4 -33 9 -54 27 -71 33 -84 25 -7 -5 -23 -10 -36 -12 -20 -2 -23 0 -17 19
6 19 4 21 -13 17 -13 -4 -23 0 -26 9 -5 12 -9 13 -21 3 -12 -10 -15 -10 -15 0
0 7 -6 10 -14 7 -10 -4 -12 0 -9 14 4 14 1 18 -10 13 -8 -3 -18 -1 -22 5 -8
15 -22 14 -32 -1z m347 -138 c0 -5 -7 -10 -15 -10 -8 0 -15 5 -15 10 0 6 7 10
15 10 8 0 15 -4 15 -10z"/>
<path d="M6945 3011 c-3 -6 -3 -15 0 -21 3 -5 0 -10 -8 -10 -7 0 -14 -6 -14
-12 0 -7 -4 -21 -8 -30 -10 -26 5 -21 45 13 28 24 33 33 24 46 -13 21 -30 27
-39 14z"/>
<path d="M6315 2980 c4 -14 16 -43 26 -64 22 -47 24 -82 6 -89 -8 -3 -20 -26
-27 -51 -7 -26 -27 -59 -48 -80 -19 -20 -31 -36 -25 -36 15 0 113 101 113 116
0 7 7 20 17 29 26 27 3 129 -38 170 -31 30 -31 30 -24 5z"/>
<path d="M6714 2705 c-27 -19 -78 -51 -114 -71 -36 -20 -81 -47 -100 -60 -66
-43 -244 -105 -390 -135 -52 -11 -99 -24 -103 -28 -13 -13 74 -25 120 -17 68
12 206 57 278 90 88 41 254 149 320 209 60 55 55 60 -11 12z"/>
<path d="M740 2720 c19 -13 30 -13 30 0 0 6 -10 10 -22 10 -19 0 -20 -2 -8
-10z"/>
<path d="M6978 2660 c-68 -284 -88 -374 -88 -391 0 -12 15 -38 33 -60 37 -43
52 -84 62 -172 6 -48 12 -61 36 -78 48 -34 52 -51 24 -107 -21 -43 -28 -49
-50 -45 -20 4 -27 0 -35 -23 -16 -42 -50 -74 -77 -74 -20 0 -22 -4 -17 -25 5
-20 1 -27 -20 -36 -14 -7 -26 -16 -26 -20 0 -13 43 -38 79 -45 17 -4 30 -12
28 -18 -31 -81 -49 -158 -39 -168 7 -7 15 -2 26 18 l17 29 -6 -45 c-4 -25 -9
-53 -12 -64 -5 -17 -1 -18 31 -12 l36 7 0 -75 c0 -59 -4 -77 -16 -84 -15 -8
-15 -10 1 -16 21 -8 85 3 85 14 0 4 28 11 63 14 57 7 60 9 43 22 -11 8 -26 14
-33 14 -7 0 -13 8 -13 18 0 10 -11 28 -25 40 -30 26 -31 36 -6 59 19 17 23 45
9 59 -4 3 4 18 18 32 13 15 24 30 24 34 0 5 5 8 10 8 6 0 10 -8 10 -19 0 -33
25 -44 90 -39 72 5 102 26 82 58 -6 11 -16 28 -20 38 -5 9 -19 36 -31 60 -12
23 -25 66 -28 95 -4 30 -20 79 -40 116 -26 50 -30 62 -16 56 51 -20 171 -55
188 -55 11 0 56 -11 99 -25 44 -14 82 -23 84 -21 2 3 -15 32 -37 66 -23 34
-41 65 -41 70 0 14 -72 80 -87 80 -17 0 -18 49 0 52 6 0 17 2 22 3 6 2 15 3
21 4 7 0 14 11 17 23 5 16 -8 36 -57 87 -35 36 -70 79 -77 96 -8 17 -24 32
-39 35 -22 5 -24 10 -22 43 4 39 -16 107 -31 107 -4 0 -6 4 -2 9 8 13 -10 22
-45 23 -24 1 -28 4 -19 15 9 10 6 13 -15 13 -16 0 -26 6 -26 15 0 7 -7 18 -16
23 -8 5 -16 15 -18 23 -8 50 -43 99 -78 112 -9 3 -18 16 -20 29 -4 23 -4 23
-10 -2z m162 -799 l24 -19 -26 1 c-15 1 -24 4 -22 6 2 2 -1 10 -7 18 -17 19 2
16 31 -6z m-124 -113 c-3 -13 -6 -31 -6 -40 0 -11 -5 -15 -15 -12 -21 8 -6 74
17 74 6 0 8 -10 4 -22z m180 -94 c7 -28 -7 -49 -29 -41 -9 3 -12 15 -9 36 5
38 29 41 38 5z"/>
<path d="M883 2571 c1 -11 7 -23 14 -26 11 -4 11 0 2 18 -16 31 -18 32 -16 8z"/>
<path d="M7560 1873 c1 -39 33 -107 61 -127 28 -19 56 -21 62 -3 5 15 -13 57
-25 57 -5 0 -8 6 -6 13 3 15 -63 87 -81 87 -6 0 -11 -12 -11 -27z"/>
<path d="M6797 1797 c-4 -12 -18 -17 -45 -17 -22 0 -54 -3 -71 -6 -26 -6 -31
-10 -26 -28 5 -16 4 -18 -4 -6 -9 12 -11 12 -16 -2 -10 -24 4 -41 27 -34 12 3
32 -4 49 -16 26 -19 33 -20 69 -9 22 6 40 17 40 24 0 7 3 23 7 36 4 14 2 22
-3 18 -6 -3 -16 -1 -24 4 -13 8 -13 10 -1 18 7 5 11 15 9 22 -3 9 -6 8 -11 -4z"/>
<path d="M3405 1494 c82 -25 94 -29 320 -109 197 -69 667 -184 905 -219 58 -9
136 -24 173 -33 56 -14 75 -15 112 -5 65 17 115 15 131 -5 12 -17 13 -16 14 5
0 19 5 22 39 22 27 0 41 -5 45 -16 4 -11 14 -15 31 -12 21 4 25 1 25 -17 0
-21 7 -24 103 -36 56 -8 145 -13 197 -12 52 0 201 2 330 3 179 2 224 5 190 12
-25 5 -110 23 -190 39 -80 16 -185 38 -235 48 -49 11 -119 24 -155 31 -36 6
-96 18 -133 27 l-68 15 7 34 c3 19 3 34 0 34 -4 0 -62 11 -130 25 -68 13 -204
33 -302 44 -164 19 -523 61 -949 111 -325 38 -352 40 -446 39 l-94 -1 80 -24z"/>
<path d="M5371 1267 c-15 -19 -4 -27 41 -27 46 0 49 14 7 29 -39 13 -34 14
-48 -2z"/>
<path d="M6640 1041 c-21 -40 -1 -44 24 -6 14 21 14 25 2 25 -9 0 -20 -9 -26
-19z"/>
<path d="M6543 1043 c9 -2 23 -2 30 0 6 3 -1 5 -18 5 -16 0 -22 -2 -12 -5z"/>
<path d="M6602 967 c-6 -7 -16 -25 -22 -41 l-10 -28 37 6 c61 11 122 45 123
69 0 13 -117 8 -128 -6z"/>
<path d="M6242 747 c-12 -13 -22 -26 -22 -29 0 -12 125 4 148 19 34 21 17 33
-47 33 -47 0 -61 -4 -79 -23z"/>
<path d="M5730 504 c-18 -8 -31 -17 -28 -19 8 -8 88 6 88 15 0 16 -27 17 -60
4z"/>
<path d="M5845 500 c3 -5 13 -10 21 -10 8 0 14 5 14 10 0 6 -9 10 -21 10 -11
0 -17 -4 -14 -10z"/>
</g>
</svg>
